<?xml version="1.0" encoding="utf-8"?>
<!-- Generator: Adobe Illustrator 19.2.1, SVG Export Plug-In . SVG Version: 6.00 Build 0)  -->
<svg version="1.1" id="形状_1_1_" xmlns="http://www.w3.org/2000/svg" xmlns:xlink="http://www.w3.org/1999/xlink" x="0px"
	 y="0px" viewBox="0 0 300 300" style="enable-background:new 0 0 300 300;" xml:space="preserve">
<style type="text/css">
	.st0{fill:#0F88EB;}
</style>
<g id="形状_1">
	<g>
		<path class="st0" d="M0,0c0,100,0,200,0,300c100,0,200,0,300,0c0-100,0-200,0-300C200,0,100,0,0,0z M163,241
			c-11.2,57.3-75.6,36.4-84,10c7.7-4.7,15.3-9.3,23-14c3,5.7,5.7,10.5,12,13c12.9,4.1,20.8-1.8,20.8-15s0.2-69.1,0.2-97
			c9.3,0,18.7,0,28,0C163.5,168.3,163.3,215,163,241z M277,240c-7.4,49.4-81.4,46.1-98,8c7.3-4.3,14.7-8.7,22-13
			c23,26.5,47.9,13.1,48,3c-2-24.7-58.1-15.9-62-60c0.6-34.9,20.2-41,38-42c22.5,0.1,34.4,8.2,43,22c-7,4.7-14,9.3-21,14
			c-8.8-8.4-13.5-13.4-28-9c-2.9,4.3-4.2,6.8-4,15C233,196,283,199.8,277,240z"/>
	</g>
</g>
</svg>
