<?xml version="1.0" encoding="utf-8"?>
<!-- Generator: Adobe Illustrator 19.2.1, SVG Export Plug-In . SVG Version: 6.00 Build 0)  -->
<svg version="1.1" id="形状_1_1_" xmlns="http://www.w3.org/2000/svg" xmlns:xlink="http://www.w3.org/1999/xlink" x="0px"
	 y="0px" viewBox="0 0 300 300" style="enable-background:new 0 0 300 300;" xml:space="preserve">
<style type="text/css">
	.st0{fill:#fff;}
</style>
<g id="形状_1">
	<g>
		<path class="st0" d="M94,190c-13-6-35.6-15.3-44-19c0,0,34.3-16.3,43-20c14.6-7,5.3-21.6-9-15s-38.4,18.8-48,24
			c-10.8,5.8-10.9,16.3,0,22c10,5.3,41,20,51,24C98.2,211.1,106.7,196.7,94,190z M169,115c-6.5,13.4-48,99-54,111s7.9,20,15,6
			s48.1-98.9,53-110C190,106,175.5,101.6,169,115z M265,159c-11-5.3-32.8-16.4-48-23s-23.5,10.9-8,16c14.4,6.6,29.4,12.8,41,19
			c-10.1,3.8-27.5,12.1-43,19c-11.9,6.3-4.5,21.5,9,15c7.3-3.6,34.9-16.4,47-22C275.1,177.4,276,164.3,265,159z"/>
	</g>
</g>
</svg>
