<?xml version="1.0" encoding="utf-8"?>
<!-- Generator: Adobe Illustrator 19.2.1, SVG Export Plug-In . SVG Version: 6.00 Build 0)  -->
<svg version="1.1" id="形状_1_1_" xmlns="http://www.w3.org/2000/svg" xmlns:xlink="http://www.w3.org/1999/xlink" x="0px"
	 y="0px" viewBox="0 0 592.5 592.5" style="enable-background:new 0 0 592.5 592.5;" xml:space="preserve">
<style type="text/css">
	.st0{fill:#FFFFFF;}
</style>
<g>
	<g>
		<path class="st0" d="M359.8,276.5c13-24.3,26.1-48.7,39.1-73c-24.1,11-56.7,27.3-72.2,33.1c-9.5-9.2-58.5-58.3-59-58
			c2.9,26.9,5.8,53.8,8.6,80.5c-21.2,10.2-42.5,20.3-63.7,30.5c-3.7,1.8-7.3,3.5-11,5.3c19.9,4.1,39.6,8.2,59.4,12.4
			c-0.2,0.3-0.3,0.8-0.5,1.1C191.2,375.9,151.4,412.7,87,473c2.7,7.9,12.3,17.8,19.6,23.3c110.3-101.7,66.5-63.1,176.8-164.8
			c0.3,0.2,0.8,0.3,1.1,0.5c2.7,19.4,5.3,38.6,8.1,58c0,0.9,0.2,1.7,0.2,2.6c13.6-23.7,27.2-47.4,40.8-71
			c27,5.5,73.9,14.8,81.3,16.5C405.6,326.3,372.2,286.4,359.8,276.5z"/>
	</g>
</g>
<rect x="325.3" y="75.4" transform="matrix(0.9834 -0.1813 0.1813 0.9834 -17.1008 61.6964)" class="st0" width="7.3" height="98.1"/>
<rect x="344.9" y="120.8" transform="matrix(0.3424 -0.9396 0.9396 0.3424 142.1829 451.9815)" class="st0" width="98.1" height="7.3"/>
<rect x="399.3" y="153.6" transform="matrix(0.7071 -0.7071 0.7071 0.7071 20.1177 363.1095)" class="st0" width="98.1" height="7.3"/>
<rect x="432.3" y="215.1" transform="matrix(0.9834 -0.1813 0.1813 0.9834 -31.6956 90.8893)" class="st0" width="98.1" height="7.3"/>
<rect x="479.8" y="227.7" transform="matrix(0.2093 -0.9779 0.9779 0.2093 111.6612 691.5266)" class="st0" width="7.3" height="98.1"/>
</svg>
