<?xml version="1.0" encoding="utf-8"?>
<svg version="1.1" id="ryl_xA0_图像_1_" xmlns="http://www.w3.org/2000/svg" xmlns:xlink="http://www.w3.org/1999/xlink" x="0px"
	 y="0px" viewBox="0 0 3208 1861" style="enable-background:new 0 0 3208 1861;" xml:space="preserve">
<style type="text/css">
	.st1{fill:#eee;}
</style>
<g>
	<g>
		
		<path class="st1" d="M544.3,1316.5c11.8-2.3,23.5-5,33.9-11.5c3.4-2.1,6.9-4,10.2-6.3c14.7-10.4,29.2-21.1,43.9-31.3
			c11-7.5,22.4-14.4,33.5-21.7c8.8-5.9,17.7-11.8,26.2-18.2c4.6-3.5,3.9-10.7-0.8-13.7c-4-2.4-8.2-4.4-12.5-6.3
			c-9.8-4.3-19.6-8.4-29.3-12.7c-8.4-3.7-13.9-10.2-15.6-19.4c-0.3-1.3-0.6-2.6-1-3.9c-4.5-14.5-1-26.1,11.7-34.9
			c4.9-3.5,9.6-7.3,13.8-11.5c15.4-16,34-27.9,53-38.8c16.9-9.7,35.1-16,54.8-17.3c7.3-0.5,14.6-0.6,21.9-0.9
			c8.9-0.3,17.3,1.6,25.3,4.9c14.8,6.1,29.8,11.6,45.6,14.4c6.8,1.2,12.1,5,16.8,10c6.2,6.4,8,13.6,5.6,22
			c-1.2,4.5-2.8,8.9-3.9,13.4c-2,8-6.5,14.3-12.6,19.9c-6.9,6.3-13,13.3-19.7,19.7c-7.3,6.9-14.7,13.5-22.1,20.2
			c-4.4,4-9.2,7.7-13.3,12c-6,6.3-5.4,14.1,1.3,19.1c4.3,3.1,8.8,6,13.6,8.2c21.4,9.7,43.7,15.9,67.3,17.3
			c13.6,0.8,19.5,12.1,12.5,23.7c-2.5,4-6,7.1-10.7,8.5c-14.9,4.4-29.8,7.1-45.2,2.4c-7-2.1-14.3-3.3-21.4-4.6
			c-24.5-4.2-47.9-11.1-69-24.9c-7.3-4.8-15-5-22.4,0.2c-6,4.1-12.2,8-18.4,12.1c-19.3,13-38.7,26-58,39.1
			c-6.6,4.5-13.1,9.1-19.5,13.9c-17.9,13.3-37.5,22.8-59.2,27.8c-2.6,0.6-5.2,1.5-7.8,1.8c-21.1,2.4-42.3,4.7-63.4,7
			c-16.8-2.3-32.9,4.1-49.6,4.2c-16.7,0.2-33.3,1.6-49.9,2.5c-2.6,0.1-5.5,0.8-8,0.5c-22.6-3.5-45.2,1.8-67.8,1.2
			c-14.2-0.4-23.9,6.8-29.2,20c-3.5,8.8-5.8,17.8-5.6,27.2c0.2,10,0.7,20,2.3,29.8c1.5,9.4,1.8,18.7-0.9,27.7
			c-5.5,18.8-6.8,37.8-5.6,57.3c1.1,18-1.4,35.7-5.2,53.5c-4.6,22.3-10.7,43.8-20,64.6c-5.5,12.1-8.6,25.2-13.2,37.7
			c-3.2,8.7-6.6,17.4-10.5,25.9c-3.2,7.1-9.2,11.2-16.9,12.7c-4.5,0.8-9.6-1.5-12.1-5.4c-4.8-7.4-4.7-15.2-1.6-23
			c2-4.9,4.8-9.5,7.9-13.8c6.7-9.5,10.7-19.9,12.2-31.4c4.5-36.4,9.4-72.7,13.4-109.1c1.3-11.2,0.4-22.6,0.2-33.9
			c-0.4-25.3,0.8-50.5,5.6-75.5c2.8-14.3,3.1-29.1,4.9-43.7c1.9-15.3-4.6-27.2-15.1-37.5c-2.8-2.9-6.4-4.8-9.2-7.7
			c-4.2-4.3-8.2-8.7-11.9-13.4c-3.8-5-4.5-10.9-3.5-17.2c1.1-6.7,3.8-12.7,7.5-18.3c6.4-9.4,13.5-18.1,21.9-25.9
			c8.5-7.9,13.8-17.8,17.8-28.5c4.3-11.5,5.9-23.4,2.7-35.4c-5.7-22.5-4.5-44.9-1.6-67.5c0.5-3.9,0.9-7.9,1.5-11.8
			c1.1-7.2-1.7-13-6.4-18.2c-2.6-3-5.8-5.4-8.6-8.3c-13.8-14-14.5-32.1-1.2-46.1c11.1-11.5,25.6-16.6,41.4-17.3
			c4.3-0.2,7.7,2.4,9.8,5.9c1.7,2.8,2.8,6,3.8,9.2c3.7,12.3,4.3,25,3.6,37.6s-0.6,25.1,0.9,37.8c1,8.5-0.3,17.3-1.3,25.8
			c-1.3,11.3-3.4,22.4-5.1,33.6c-1.4,9.5-0.3,18.6,2.7,27.6c1,3.2,2.5,6.2,4.3,9c4,6.3,10.3,8.4,17.3,6.5
			c7.3-2.1,13.3-6.2,18.5-11.4c24.7-24,47.2-50.3,65.3-80c6.6-10.7,11.2-22.7,16.7-34.1c0.6-1.2,1-2.5,1.4-3.8
			c10.5-30.7-8-52.9-30.9-59.9c-16.6-5-32.9-10.8-48.2-19c-8.3-4.5-17.4-6.8-26.7-7.9c-20.5-2.4-40.5-7.8-60.7-12.5
			c-3.2-0.7-6.5-1.6-9.7-2.2c-4.7-1-9.3-0.9-13.6,1.7c-7.5,4.7-15.5,7.4-24.3,8.6c-7.3,1-11.9,5.6-14.9,11.9
			c-2,4.2-3.7,8.6-5.7,12.8c-2.1,4.2-4.3,8.3-6.9,12.1c-1.9,2.6-4.4,5-8.2,4.5c-2.5-0.3-4.9-3.5-5.3-7.6
			c-1.2-11.3-0.8-22.6,1.3-33.8c1.8-10.1,6.8-17.2,17.5-19.3c6.6-1.4,12.6-4,18.1-8.1c11.5-8.8,25.1-12.3,39.2-13.4
			c13.3-1.1,26.6-1.1,39.9-1.8c10-0.5,19.9,0.7,29.7,2.9c6.5,1.4,13.1,2.6,19.7,2.7c19.5,0.6,38.3,4.6,56.6,11.3
			c2.5,0.9,5,1.8,7.5,2.7c27,9.9,21.1,6.1,39.1,25.9c4.5,4.9,8.8,10.1,13.8,14.4c8.4,7.3,13.5,16.5,16.4,27
			c3.2,11.6,6.1,23.2,8.6,35c2.7,12.2,1,23.8-5.5,34.7c-13.7,22.9-27.1,45.9-44.6,66.2c-2.2,2.5-4,5.3-6,7.9
			c-13,17-26,33.8-43.7,46.3c-4.9,3.5-9.1,7.8-13.4,12c-11.2,10.6-23.3,19.7-37.4,26.2c-4.2,1.9-8.2,4.4-11.8,7.4
			c-3,2.5-5.5,5.8-7.6,9.1c-3.5,5.5-0.9,12.8,5.2,14.6c3.7,1.1,7.8,2.1,11.7,2c14.8-0.4,29.2,1.8,43.6,4.3
			c7.2,1.2,14.6,1.9,21.8,1.8c20-0.2,39.8,1.8,59.7,4.1c23.1,2.8,46.4,3.5,69.7-0.1C532.6,1319.6,538.5,1317.8,544.3,1316.5z
			 M754.5,1187.8c4.1-1.7,7.4-2.5,10.2-4.3c5.7-3.5,11.6-6.8,16.3-11.4c8.6-8.4,17-16.8,27.3-23.1c3.2-2,6-5.3,8.4-8.4
			c5.3-6.9,4.4-14.5-3-18.8c-6.9-4-14.2-7.1-21.7-9.8c-13-4.8-26-3.8-38.9,1.3c-19,7.4-33.6,21-48.8,33.8c-0.5,0.4-0.8,1.1-1.2,1.6
			c-2.3,3.1-2,8.2,0.7,11c0.9,0.9,1.7,2.2,2.8,2.9c11.7,7.5,23.4,15.2,35.6,22.1C745.8,1187,750.8,1187,754.5,1187.8z"/>
		<path class="st1" d="M1093.2,1061.8c2.1,11.8,4.1,23.6,6.2,35.4c0.3,2,0.9,3.9,1.5,5.8c1.2,3.7,6.3,5.6,9.8,3.9
			c5.6-2.7,9.4-7.5,13.2-12c10.2-12.4,20.4-24.6,30.3-37.1c6.3-7.9,13.4-14.8,21.3-20.9c6.3-4.8,12.4-10.2,17.7-16
			c10.3-11.5,22.9-20.4,35-29.6c1.1-0.8,2.1-1.6,3.3-2.3c12.1-6.9,25.9-2.1,31.3,11c2.9,6.9,4.1,14.3,3.1,21.5
			c-2.9,23.8,9.8,42.2,20.9,61c1.3,2.2,3.6,3.9,5.8,5.3c4.9,3.3,10.1,3.5,15.1,0.5c10-6.3,17.1-15.1,20-26.5
			c4.3-16.8,8.1-33.6,11.9-50.6c0.7-3.2,0.9-6.6,1.1-9.9c1.5-16-9.9-32.5-30.4-31.4c-9.9,0.5-20,1.5-29.8,2.3
			c-9.9,0.8-19.9,1.6-29.9,2.6c-4.3,0.4-7.7-1.4-10.9-4c-1-0.9-1.9-1.8-2.8-2.9c-6.4-8.2-11.3-17.2-7-27.6
			c4.3-10.4,14.1-13.3,24.4-14.4c1.3-0.1,2.7,0,4,0c21.3-0.3,42.6-0.4,63.9-0.8c12.1-0.3,23.7-3.9,34.8-8.2c12.5-4.8,25-9.2,36.6-16
			c4.6-2.7,9.7-4.3,14.5-6.7c14.9-7.4,29.9-14.5,44.5-22.5c5.1-2.8,9.3-7.5,13.2-11.9c5-5.4,10.1-10.6,16.7-14
			c9.7-5.1,20.5-1.9,25.5,7.7c7.2,13.5,8.3,28,5.9,42.8c-2.1,13.3-2.9,26.6-0.1,39.7c2.7,13,6.2,25.9,9.4,38.8
			c0.4,1.9,1.7,3.6,2.8,5.2c2.5,3.8,8.5,5.1,12.5,2.9c7.1-4.1,12.9-9.7,17-16.6c10.9-18.3,23.3-35.7,30.9-55.8
			c4.3-11.2,8.4-22.4,11.2-34.1c2.3-9,5.2-17.9,8.1-26.7c2.2-6.3,5.8-12,10.7-16.7c3.9-3.9,8.5-6.4,14-7.1
			c5.5-0.6,10.9,0.3,14.5,4.9c3.2,4.1,6.4,8.6,8.3,13.5c4.5,11.8,8.1,24,9.4,36.7c1,10.8,5,20.7,9.8,30.3c0.9,1.7,1.8,3.6,2.8,5.3
			c6.2,9.6,14.4,11.6,23.8,5.1c9.3-6.5,18-13.6,25.1-22.8c3.2-4.2,7-7.9,10.6-11.8c1.7-1.7,6-0.3,6.3,2.1c0.4,2.6,1.2,5.4,0.7,7.9
			c-1.7,7.8-3.6,15.6-6.3,23.1c-3.8,10.6-8.3,21-12.9,31.4c-3,6.9-8.2,11.6-15.3,15c-14.1,6.8-28.8,9.9-44.4,10.3
			c-9.7,0.1-17.1-3.5-22-11.2c-4.3-6.6-7-14.3-10.7-21.4c-1.5-2.9-3.1-5.7-5-8.4c-1.4-2.1-5.7-2.1-6.9-0.1c-1.6,2.8-3.5,5.7-4.5,8.7
			c-3,9.7-8.1,18.2-15.2,25.5c-5.7,5.8-9.7,12.5-12.8,20c-9,20.9-24.5,36.2-43.4,48.1c-7.5,4.7-15.8,7.1-24.5,8.2
			c-13.8,1.9-25.3-4.4-30.6-17.1c-2.3-5.4-3.7-11.4-4.8-17.3c-2-10.5-4.5-20.8-9.1-30.5c-4.8-10.5-6.9-21.4-7.4-32.9
			c-0.5-12-1.7-23.9-3-35.8c-0.3-3.3-1.5-6.5-2.6-9.6c-1.6-4.2-7.1-7.7-11.2-6.6c-21.8,6-44.1,11-61.1,27.7
			c-4.8,4.7-10,8.8-14.5,13.7c-6,6.3-7.5,13.9-4.6,22.3c0.6,1.9,1.5,3.6,2.4,5.5c8,16.8,9.6,34.4,6.9,52.7
			c-2.8,18.5-6.3,36.7-14.2,53.9c-4.7,10.3-8.5,21-13.3,31.2c-8.9,18.8-23.5,31.9-42.1,41.1c-8.3,4.1-16.8,4.8-25.2,1.5
			c-8.7-3.5-16.9-7.7-25.1-12.4c-8.6-4.9-13-13.2-15.7-22.4c-1.7-5.7-2.5-11.7-3.3-17.6c-0.9-6.1-2.6-11.9-6.9-16.3
			c-7.6-7.7-13.8-16.1-17.6-26.3c-1.2-3.1-6.2-4.2-8.5-2c-7.8,7.4-16.6,13.2-26.1,18.1c-7.9,4-13.4,10.9-18.6,18
			c-12.2,16.6-24.1,33.6-36.4,50.1c-6.8,9-9.8,18.5-7.5,29.9c2.1,10.4,3.1,21.1,5.3,31.5c2,9.9,3.1,19.7,1.1,29.7
			c-2.4,11.9-1.7,23.8-0.1,35.8c2.5,19.1,6.8,38,5.4,57.5c-0.2,2,0.2,4.1,0.6,5.9c4.1,16.4,3.9,33,2.5,49.7c-0.2,2.6-0.8,5.4-0.3,8
			c2.4,14,1.5,27.8-1.9,41.5c-1.1,4.3-0.3,9.4,0.9,13.7c3.2,12,2.1,23.6-0.7,35.5c-3.1,14.2-4.9,28.7-2.8,43.6
			c1.2,8.3-0.6,17.3-2.4,25.7c-2.5,11.7-4.5,23.4-4.7,35.5c-0.2,14.2-3.7,27.6-12.8,39.2c-3.6,4.7-6.6,10-9.2,15.3
			c-5.8,11.5-14.2,20.9-23.6,29.5c-7,6.4-14.9,11.1-24.1,13.7c-9.6,2.7-19.1,5.8-28.7,8.9c-12.1,3.9-24.7,5.3-37.5,5.6
			c-16.8,0.4-29.5-7.3-38-21.5c-3.3-5.7-6-12-8.2-18.1c-4.2-12-8.2-24-12-36c-2.6-8.4-2.3-17.1-1-25.7c3.7-22.3,5.2-45.1,13.9-66.3
			c2.5-6.1,3.3-12.9,5.3-19.2c2-6.5,5.2-12.4,11.7-15.4c1.5-0.6,3.8-0.1,5.4,0.4c0.9,0.3,2,2,1.9,3.1c-0.1,3.3-0.2,6.6-0.9,9.9
			c-4.6,19.5-6.5,39.4-7.4,59.4c-0.4,8.1-0.8,16-3.5,23.6c-3.1,8.6-2.3,17.1,1,25.4c2.2,5.6,4.8,11,7.5,16.3
			c3.5,6.7,9,11.6,15.7,14.9c17.1,8.5,34.3,9.8,51.6,0.3c17-9.3,29.6-22.1,36.5-40.7c5.1-13.9,9-27.9,10.5-42.6
			c1.1-9.9,2.3-19.9,3.5-29.7c2.7-21.8,5.5-43.6,8.3-65.3c2.8-22,2.8-43.8,0.2-65.8c-1.8-15.3-2.6-30.4-1.5-45.8
			c1.4-19.3-0.7-38.6-3.7-57.7c-1.6-9.8-2.1-19.8-3.2-29.7c-0.3-3.3-0.4-6.7-1.3-9.9c-10-36.2-12.8-73.4-17.4-110.4
			c-1-7.9-3.1-15.7-5.1-23.4c-0.6-2.5-1.9-4.9-3.2-7.3c-2.9-5.4-8.1-7.2-13.4-4.3c-2.4,1.3-4.5,3-6.7,4.3c-1.7,1-3.6,1.7-5.4,2.5
			c-4.2,1.8-8.9-0.7-8.7-4.9c0.3-5.9-0.3-12.5,2.1-17.6c8.8-20.5,10.9-42.6,17.6-63.5c1.8-5.6,3.6-11.5,6.4-16.7
			c5.4-9.9,14.7-13,25.5-12c4.1,0.4,7.9,2.5,9.6,6.4c2.5,5.4,4.6,11.1,6.1,16.9c3.1,12.2,5.7,24.7,8.5,37
			C1093.5,1061.7,1093.3,1061.8,1093.2,1061.8z"/>
		<path class="st1" d="M2549.2,425.1c46.9-7.9,90.2-0.3,131,20.9c11.3,5.9,22.4,11.7,34.5,15.9c0.7,0.3,1.2,0.4,1.9,0.7
			c28.6,10.2,31,34.3,23.2,57.1c-2.4,6.7-7.4,12.5-11.3,18.6c-1.4,2.3-3.2,4.2-4.7,6.4c-0.3,0.4-0.3,1.4,0.1,1.7
			c0.9,0.8,2.2,2.2,3,1.9c8.8-2.8,17.9-5.3,26.3-9.1c12.1-5.5,23.7-12,35.6-18.1c0.5-0.3,1.2-0.7,1.7-0.9
			c14.7-7.3,15.6-15.9,7.2-29.1c-2.1-3.4-4-7-6.4-10.1c-5.8-7.8-8.5-16.5-7.6-26.3c0.9-9.4-0.4-18.3-4.3-27.2
			c-4.6-10.7,0.7-19.5,12-23.1c9.8-3,19.6-4,29.6-1.5c6.4,1.6,12.9,3.2,19.2,5.3c15.6,5.3,25.7,16.2,31,31.6
			c3.8,11.4,5.3,23.4,5.6,35.4c0.1,2.6-0.4,5.3-0.5,8c-0.1,10.4,4.3,17.8,13.8,22.4c6,2.9,12,5.8,17.6,9.2c2.6,1.7,4.5,4.7,6.3,7.4
			c1.5,2.1,0.2,6-2.1,6.7c-8.9,2.8-17.9,5.1-27.4,5.1c-5.9,0-12,0.9-17.9,0.4c-10.8-0.9-19.6,2.9-27.6,9.3
			c-10.5,8.3-22.3,14.2-34.7,19.4c-26.9,11.4-53.6,23.4-80.5,35.5c-6.8,3-13.8,5.2-21.2,5.3c-12.1,0.3-23.8,2.6-35.5,5.3
			c-3.9,0.9-7.9,2-11.8,2.1c-15.2,0.6-28.2,6.8-40.5,15.4c-17.4,12.3-35.3,23.8-52.9,36c-15.3,10.7-32,19.1-48.7,27.2
			c-9.6,4.7-19.3,9-26.4,17.5c-2.1,2.5-4.9,4.6-7.7,6.3c-22.5,14.1-45,28.5-67.9,42c-8,4.7-17,7.7-25.8,10.7c-7.6,2.5-15,5.4-22,9.3
			c-10.5,5.8-21.3,11.1-32,16.4c-13,6.4-22.9,15.8-29,29.2c-2.2,4.9-4.8,9.5-7,14.4c-5.6,12.3-14.3,22.6-24.5,31.2
			c-5.5,4.6-12,8.8-18.6,11.4c-13.1,5.1-26.8,7.9-40.9,8.6c-9.5,0.4-18.5-1-27.1-5.3c-6-2.9-12.1-5.5-18.3-7.9
			c-12.6-5-17.8-15.3-19.9-27.8c-0.4-2.3,0.6-5.6,2.1-7.3c3.6-3.9,7.6-7.7,12-10.3c24.6-14.6,49.4-28.8,74.2-43.3
			c6.9-4,13.8-8,20.3-12.7c8.6-6.1,13.1-14.8,14-25.4c1-10.7,0.7-21.3-1.5-31.9c-2.9-13.8-5-27.6-3.5-41.7
			c0.8-7.4-0.8-14.6-2.4-21.7c-2.8-13-5.3-26.1-7.6-39.2c-3.7-21.7-7.8-43.3-16.4-63.8c-2-4.9-3.6-10.1-5-15.2
			c-3.1-12.3-6.6-24.3-12-35.9c-3.3-7.2-4.7-15.2-6.3-23.1c-2.9-14.5-7.2-28.3-15.9-40.7c-2.9-4.3-4.7-9.5-6.4-14.4
			c-1.8-5-2.6-10.3-4-15.5c-4.6-17.4-8.4-34.9-20.2-49.6c-5.7-7.2-9.4-16-13.9-24.2c-7.3-13.4-8.8-27.9-7.2-42.7
			c1.8-16.7,16.1-22.7,28.6-21.7c3.1,0.2,6.4,1.9,9,3.9c8,6.1,14.5,13.8,19.8,22.3c3.2,5.2,4.4,11.1,3.5,17.4
			c-0.3,2.6-0.7,5.3-1.5,7.8c-2.4,8.2-0.3,15.7,3.6,23c5.9,11.2,11.9,22.3,16.8,33.9c5.7,13.5,10.2,27.4,15.4,41.1
			c8.5,22.5,15.4,45.4,20.3,68.9c1.2,5.9,3.7,11.4,5.5,17.1c2.2,7,4.9,13.9,6.2,21c2.7,14.6,7.5,28.3,14.7,41.3
			c4.7,8.4,6.8,17.2,7.7,26.7c0.8,10,2,20,4.1,29.6c7.6,34.6,10.8,69.7,13.5,104.9c0.2,2.6,0.5,5.3,1.2,7.8c1.7,6.8,8.9,11,15.5,9.1
			c3.2-0.9,6.2-2.3,9.2-3.6c23.8-10.3,47.8-20.5,71.4-31c5.4-2.5,10.9-5.3,15.2-9.4c17-15.6,37.3-25.5,57.9-35.1
			c7.2-3.4,14.6-6.5,21.7-10c9.6-4.7,18.3-10.6,26-18.2c5.6-5.6,12.3-10.2,18.4-15.3c8.1-7,16.1-13.9,23.9-21.2
			c4.1-3.9,4.2-10.1,0.1-14.4c-5-5.3-10.3-10.5-15.8-15.2c-9.3-7.7-17.8-15.8-23.5-26.8c-2.7-5.2-7.1-9.7-10.9-14.2
			c-8-9.5-12.8-20.4-14.2-32.6c-1.1-9.9-1.6-19.9-1.4-29.9c0.1-5.1,1.7-10.5,3.6-15.5c3.7-9.8,10.6-16.9,20.9-19.9
			C2538.8,427.9,2544.6,426.4,2549.2,425.1z M2557.1,487c1,2,2.7,6.2,5,10.3c8.3,15.2,19.7,28.4,30.8,41.5c5.2,6.1,11.6,11,19,14.2
			c7.6,3.4,15,3.6,22.8-0.8c19.5-10.8,35.8-25.1,50.9-41.2c0.9-0.9,1.7-2,2.5-3.1c2-2.9,1.6-8.6-0.8-11.2c-1.8-2-3.6-3.9-5.8-5.3
			c-13.5-8.5-27-17-42.1-22.7c-7.5-2.7-15.1-5.8-22.9-6.8c-13.1-1.7-26.5-2.4-39.7-2.7C2562.6,458.9,2553.4,470.8,2557.1,487z
			 M2842.3,463.4c-0.2,0-0.4,0.1-0.5,0.1c-0.9-3.9-1.3-7.9-2.8-11.6c-1.3-2.9-3.4-5.8-5.9-7.7c-1.7-1.3-4.9-1.4-7.3-1
			c-3.2,0.6-3.6,4-3.3,6.4c1.5,10,5.6,19,12.5,26.6c0.8,0.9,2.1,1.7,3.3,2c1.2,0.3,2.7,0.3,3.7-0.2c0.9-0.5,2-2,2-3
			C2843.6,471.2,2842.9,467.4,2842.3,463.4z"/>
		<path class="st1" d="M2153.5,1438.7c-2.9-9.6-5.6-19.1-8.8-28.7c-4.3-12.7-7.7-25.5-8.1-39c-0.1-3.4-0.4-6.7-1.2-9.9
			c-8.3-30.5-7.2-62-11.1-93c-1.6-12.7-0.1-25.3,3.5-37.6c3-10.3,5.3-20.5,5.4-31.4c0-5.7,2.3-11.7,4.2-17.3c2.4-7,4-14.1,3.1-21.5
			c-0.2-1.3-0.3-2.7-0.2-4c2.4-25.9-4.8-50.1-13-74.2c-4.3-12.7-8.9-25.2-12.7-37.9c-2.5-8.3-4.5-16.8-5.4-25.3
			c-0.8-8.1-2.3-15.7-6.1-22.9c-1.5-2.9-2.6-6.2-3.5-9.4c-9-33.7-22.9-65.3-36.6-97.1c-4.5-10.3-6.5-21.6-9.4-32.5
			c-1.8-7.1-3-14.4-4.8-21.5c-0.8-3.2-2.2-6.3-3.8-9.2c-2.3-4.2-7.7-5.9-12.1-4.1c-6.4,2.7-11.4,6.9-14.7,13
			c-1.2,2.3-2.3,4.8-2.9,7.4c-3.9,14.3-14.9,19.7-28.2,21.8c-9,1.3-16.9-1.2-23.6-8.1c-13.5-14.1-21.4-30.5-22-50
			c-0.4-13.2,0.5-26.6,0.9-39.9c0.2-7.3,0.7-14.6,0.6-22c-0.6-29.9,5.6-58.2,19.2-84.8c3.7-7.2,6.1-14.7,8.1-22.5
			c1.7-6.3,4-12.8,7-18.6c6.5-12.5,18.6-18.2,31.7-13.9c12.6,4.2,24.9,9.4,37.1,14.7c5.1,2.2,8.1,6.7,9.6,12.2
			c3.1,11.6,6.6,23,9.5,34.7c2.2,8.8,1.4,17.3-5.6,24c-5.5,5.3-12.4,7.9-19.8,8.2c-2.2,0.1-5.4-1.3-6.8-3.2
			c-3.1-4.2-5.3-9.2-8.1-13.6c-2.1-3.4-8.2-3.3-10.2,0.3c-10,18.8-21.6,37.1-23,59c-1.1,17.3-1,34.6-1.4,51.9
			c-0.1,0.6,0.3,1.3,0.3,2c0.5,3,5.1,5.9,7.7,4.4c6.9-3.9,13.9-7.9,20.3-12.5c5-3.7,6.7-9.8,8.4-15.5c5.6-18.9,16.6-34.7,28.8-49.9
			c7.2-9,16.8-12.7,28-13c6.7-0.2,11.9,4.1,12,10.6c0.1,4.6-0.3,9.3-1,13.9c-0.7,4.6-2.1,9.1-3.3,13.6c-5,19.1-5.5,38-0.6,57.2
			c3.5,13.6,5.2,27.5,8.1,41.1c3.1,14.4,6.7,28.5,15.4,40.8c1.5,2.1,2.9,4.6,3.6,7.1c5.6,21.3,14.4,41.5,19.2,63
			c3.4,15.6,7.6,31.1,12,46.4c1.6,5.7,4.6,10.9,7.5,16.2c2,3.7,8.1,3.3,9.8-0.7c3-7.4,5.9-14.9,8.4-22.4c2.9-8.5,8.9-13,17.3-14.6
			c3-0.6,7.3,2,7.5,5.1c0.4,6,0.5,11.9,0.5,17.8c0,5.9-1.2,12.1-0.3,17.9c1.2,8.8,0.7,17-1.9,25.6c-1.6,5.6-1.6,11.9-1.5,17.8
			c0.4,17.3,0.5,34.5-0.7,51.8c-1.2,17.9-1.6,36-0.4,53.9c1.3,19.2,4.2,38.4,10,57c6.8,21.6,14.2,43,20.3,64.8
			c7,24.4,12.9,49,19.1,73.5c2.1,8.4,3.5,16.9,5.5,25.4c4.4,19,5.4,38.3,5.2,57.6c-0.2,19.5-4.7,38.3-14.5,55.5
			c-8.5,14.9-21.1,19.2-37.3,12.7c-5.5-2.2-10.7-5.3-16.1-7.8c-10.7-5.1-19.1-11.8-20.7-24.7c-0.6-4.5-3.8-8.5-5.2-12.9
			c-3.4-10.8-6.4-21.7-9.5-32.5C2152.8,1438.8,2153.2,1438.7,2153.5,1438.7z M2200.3,1366.5c-0.9-3.8-1.2-5.8-1.7-7.7
			c-4.4-16-8.7-32.1-13.3-48.1c-1.1-3.9-2.6-7.5-4.3-11.1c-3.5-7.9-7.2-15.7-11-23.6c-0.2-0.6-0.7-1.3-1.3-1.5
			c-1-0.4-2.2-0.7-3.3-0.8c-0.5,0-1.3,0.6-1.5,1.1c-4.5,9.6-3.8,19.5-0.8,29.2c5,16.1,6,32.6,6.1,49.3c0.2,25.6,8.1,49.8,15.6,73.9
			c2.2,6.8,6,13.4,12.2,18c3.3,2.4,8.4,1.4,10.1-2.3c3.9-8.2,3.7-16.6,1.9-25.4c-3.1-15-5.6-30.1-8.3-45.1
			C2200.7,1369.9,2200.4,1367.2,2200.3,1366.5z"/>
		<path class="st1" d="M1786.9,959.7c-4.2-23.6-8.8-47.1-12.6-70.8c-2.1-13.2-2.7-26.5-4.1-39.7c-0.4-4-0.5-8.1-1.8-11.8
			c-0.7-2.2-3.1-4.2-5.3-5.3c-1.2-0.6-3.7,0.8-5.1,2.1c-5.9,5.3-11.5,11-17.4,16.5c-1.4,1.4-3.1,2.6-4.9,3.5
			c-1.7,0.7-4.3,1.4-5.4,0.6c-2-1.4-4.2-4-4.3-6.1c-0.5-11.4,1-22.6,5.8-33.2c1.6-3.7,3.6-7.2,5.3-10.7c4.6-9.7,9.9-18.9,13.5-28.9
			c7.1-19,21.8-25.8,40.3-27.4c5.9-0.5,10.3,2.3,12.5,7.9c2.2,5.6,4.2,11.3,6.5,16.8c1.4,3.3,5.1,4.5,8.2,2.9
			c6.4-3.4,12.8-7,19.4-10c3.7-1.8,7.8-1.5,11.7-0.2c12.4,4.2,23,10.8,29.3,22.7c7.3,13.5,14.5,27,21.1,40.9
			c8.4,18.1,16.1,36.6,21.6,55.8c3.4,12,9.4,23.4,14.3,35.1c2.6,6.2,5.9,12,8,18.3c1.5,4.3,2.2,9,2.2,13.7c0,7.7-5,13.8-12.5,16.3
			c-7.2,2.3-13,0-18.2-5.1c-1.4-1.4-2.6-3-3.7-4.7c-13.7-19.8-25.5-40.5-33.1-63.4c-5.1-15.3-13.3-29-23.6-41.3
			c-1.3-1.5-4.4-1-5.1,0.5c-0.4,1.2-1.3,2.3-1.5,3.6c-4.3,24.3-6.4,48.8-6.4,73.5c-0.1,11.5-1.8,22.5-5.3,33.4
			c-4.9,15.5-13,21.4-29.4,21.9c-2,0.1-4,0-6-0.2c-6.6-0.5-11-4.2-12.7-10.8c-0.7-2.6-1-5.2-1.4-7.9s-0.7-5.3-1-8
			C1786.4,959.8,1786.7,959.8,1786.9,959.7z"/>
		<path class="st1" d="M952.5,1191.8c-0.5-5.9-1.7-11.9-1.5-17.8c0.5-17.2,1.4-34.6,2.5-51.8c0.8-12.1,1.2-24-2.6-35.6
			c-0.9-2.5-1.3-5.1-1.7-7.8c-1.5-10.3,2.5-18.1,11.8-23.1c7.8-4.2,16.2-5.9,24.9-6.8c4.2-0.3,7.7,1.4,10.4,4.7
			c4.9,5.9,7.1,12.7,7.6,20.2c0.3,3.9-0.3,8-0.3,12c0.3,13.3,0.8,26.6,1.3,39.9c0.1,5.6,2.6,10.3,6.2,14.4
			c6.8,7.7,7.8,16.7,6.4,26.2c-2.3,15.3-7.6,29.6-13.3,43.8c-3.3,8.1-9.9,14-17.5,18.7c-5.7,3.5-11.4,3.1-16.1-1.9
			c-2.3-2.4-4.4-4.9-6.3-7.7C958.8,1210.8,954.7,1201.8,952.5,1191.8z"/>		
	</g>
</g>
</svg>
